<svg width="100" height="100" viewBox="0 0 100 100" fill="none" xmlns="http://www.w3.org/2000/svg">
  <circle cx="50" cy="50" r="45" fill="#0F172A"/>
  <path d="M32 42C32 36.4772 36.4772 32 42 32H58C63.5228 32 68 36.4772 68 42V58C68 63.5228 63.5228 68 58 68H42C36.4772 68 32 63.5228 32 58V42Z" fill="#3B82F6"/>
  <path d="M42 53C42 50.7909 43.7909 49 46 49H54C56.2091 49 58 50.7909 58 53V58C58 63.5228 53.5228 68 48 68C42.4772 68 38 63.5228 38 58V57C38 54.7909 39.7909 53 42 53Z" fill="#0F172A"/>
</svg> 